<svg width="36" height="33" viewBox="0 0 36 33" fill="none" xmlns="http://www.w3.org/2000/svg">
<path fill-rule="evenodd" clip-rule="evenodd" d="M5.11645 11.5539C5.21686 10.5829 6.035 9.84503 7.01111 9.84503H24.4139C25.3653 9.84503 26.1708 10.5471 26.3008 11.4896L28.6007 28.169C28.7585 29.3136 27.8692 30.334 26.7138 30.334H5.28619C4.15672 30.334 3.27534 29.3568 3.39153 28.2333L5.11645 11.5539ZM7.01111 11.1149C6.68574 11.1149 6.41302 11.3608 6.37955 11.6845L4.65463 28.3639C4.6159 28.7384 4.9097 29.0641 5.28619 29.0641H26.7138C27.0989 29.0641 27.3954 28.724 27.3427 28.3425L25.0428 11.6631C24.9995 11.3489 24.731 11.1149 24.4139 11.1149H7.01111Z" fill="#191919"/>
<path fill-rule="evenodd" clip-rule="evenodd" d="M10.3109 6.6204C10.3109 4.98909 11.6334 3.66666 13.2647 3.66666C14.896 3.66666 16.2184 4.98909 16.2184 6.6204V12.5383C16.2184 12.889 15.9341 13.1733 15.5835 13.1733C15.2328 13.1733 14.9486 12.889 14.9486 12.5383V6.6204C14.9486 5.69041 14.1947 4.9365 13.2647 4.9365C12.3347 4.9365 11.5808 5.69041 11.5808 6.6204V12.5383C11.5808 12.889 11.2965 13.1733 10.9458 13.1733C10.5952 13.1733 10.3109 12.889 10.3109 12.5383V6.6204Z" fill="#191919"/>
<path fill-rule="evenodd" clip-rule="evenodd" d="M14.9473 6.6204C14.9473 4.98909 16.2697 3.66666 17.901 3.66666C19.5323 3.66666 20.8548 4.98909 20.8548 6.6204V10.3299C20.8548 10.6806 20.5705 10.9649 20.2198 10.9649C19.8692 10.9649 19.5849 10.6806 19.5849 10.3299V6.6204C19.5849 5.69041 18.831 4.9365 17.901 4.9365C16.971 4.9365 16.2171 5.69041 16.2171 6.6204V12.5383C16.2171 12.889 15.9328 13.1733 15.5822 13.1733C15.2315 13.1733 14.9473 12.889 14.9473 12.5383V6.6204Z" fill="#191919"/>
<path fill-rule="evenodd" clip-rule="evenodd" d="M19.8099 29.6332L21.7975 10.4141L23.0606 10.5447L21.073 29.7638L19.8099 29.6332Z" fill="#191919"/>
<path d="M13.7941 17.3473C13.6665 17.5181 13.5441 17.6956 13.408 17.8864C13.4424 17.7587 13.4735 17.6509 13.501 17.543C13.5993 17.1415 13.6786 16.7384 13.6631 16.322C13.6424 15.7944 13.3752 15.5008 12.834 15.4344C12.3652 15.378 11.9136 15.4477 11.481 15.6318C10.8347 15.9072 10.2693 16.2921 9.75744 16.7567C9.42134 17.0636 9.11971 17.4003 8.85945 17.7703C8.75776 17.9146 8.76983 18.0988 8.88703 18.2215C8.97493 18.3128 9.06284 18.3145 9.15246 18.2265C9.23002 18.1502 9.30586 18.0706 9.38515 17.9943C9.65919 17.7255 9.91773 17.4418 10.2435 17.2295C10.3193 17.1814 10.4003 17.1349 10.4848 17.105C10.6502 17.047 10.7761 17.1366 10.7692 17.3041C10.7657 17.3771 10.7502 17.4518 10.7244 17.5215C10.6227 17.8035 10.5158 18.0822 10.4089 18.3626C9.71435 20.1858 9.01975 22.009 8.31825 23.8306C8.24069 24.0281 8.36479 24.179 8.56817 24.1774C9.30931 24.1707 10.0504 24.174 10.7916 24.174C10.9519 24.174 11.0105 24.1326 11.0725 23.9916C11.4224 23.1936 11.7654 22.3939 12.1256 21.5993C12.5996 20.5524 13.1201 19.5288 13.782 18.5782C14.1095 18.1071 14.4559 17.6492 14.8541 17.2311C15.0092 17.0669 15.2039 16.9806 15.4401 17.0304C15.5435 17.052 15.6107 17.11 15.6348 17.2228C15.6641 17.3655 15.7072 17.5082 15.7675 17.6409C16.064 18.2995 16.7276 18.5218 17.3636 18.1568C17.9324 17.8317 18.215 17.3224 18.2323 16.692C18.2426 16.2938 18.0909 15.9421 17.779 15.6717C17.4118 15.3515 16.9723 15.2951 16.5052 15.378C15.983 15.4709 15.5297 15.7115 15.1091 16.0118C14.5903 16.3817 14.1715 16.8462 13.7941 17.3473Z" fill="#191919"/>
</svg>
