<svg width="16" height="16" viewBox="0 0 16 16" fill="none" xmlns="http://www.w3.org/2000/svg">
<path d="M14.7805 6.99406L11.5376 9.86394L12.5588 14.1946C12.5894 14.3195 12.5835 14.4512 12.5419 14.5725C12.5003 14.6939 12.4249 14.7991 12.3256 14.8746C12.2265 14.9505 12.1081 14.9934 11.9857 14.998C11.8632 15.0027 11.7422 14.9687 11.6382 14.9005L8.04431 12.5373L4.45039 14.9018C4.35219 14.9655 4.23923 14.9995 4.12389 15C3.99419 14.9997 3.86789 14.9563 3.76303 14.8759C3.6637 14.8004 3.58831 14.6952 3.5467 14.5738C3.50509 14.4525 3.49921 14.3208 3.52982 14.1959L4.55104 9.86524L1.30816 6.99406C1.21442 6.91133 1.14629 6.80099 1.1125 6.67719C1.07872 6.55339 1.08082 6.42179 1.11855 6.29926C1.15627 6.17673 1.2279 6.06887 1.32423 5.98951C1.42056 5.91015 1.53721 5.86292 1.65921 5.85386L5.88649 5.54231L7.47478 1.40555C7.52043 1.28579 7.59907 1.18318 7.70057 1.1109C7.80207 1.03862 7.92179 1 8.04431 1C8.16683 1 8.28655 1.03862 8.38805 1.1109C8.48955 1.18318 8.56819 1.28579 8.61384 1.40555L10.2021 5.54231L14.4294 5.85516C14.5514 5.86421 14.6681 5.91144 14.7644 5.9908C14.8607 6.07016 14.9324 6.17803 14.9701 6.30055C15.0078 6.42308 15.0099 6.55469 14.9761 6.67848C14.9423 6.80228 14.8742 6.91262 14.7805 6.99535V6.99406Z" stroke="#FFA900"/>
</svg>
