<svg width="16" height="16" viewBox="0 0 16 16" fill="none" xmlns="http://www.w3.org/2000/svg">
<path d="M14.6918 6.99406L11.449 9.86394L12.4702 14.1946C12.5008 14.3195 12.4949 14.4512 12.4533 14.5725C12.4117 14.6939 12.3363 14.7991 12.237 14.8746C12.1378 14.9505 12.0195 14.9934 11.897 14.998C11.7746 15.0027 11.6536 14.9687 11.5496 14.9005L7.95569 12.5373L4.36177 14.9018C4.26357 14.9655 4.15061 14.9995 4.03527 15C3.90557 14.9997 3.77926 14.9563 3.6744 14.8759C3.57508 14.8004 3.49969 14.6952 3.45808 14.5738C3.41647 14.4525 3.41058 14.3208 3.44119 14.1959L4.46242 9.86524L1.21954 6.99406C1.1258 6.91133 1.05767 6.80099 1.02388 6.67719C0.990096 6.55339 0.992201 6.42179 1.02992 6.29926C1.06765 6.17673 1.13927 6.06887 1.2356 5.98951C1.33194 5.91015 1.44859 5.86292 1.57059 5.85386L5.79786 5.54231L7.38616 1.40555C7.43181 1.28579 7.51045 1.18318 7.61195 1.1109C7.71345 1.03862 7.83317 1 7.95569 1C8.07821 1 8.19793 1.03862 8.29943 1.1109C8.40093 1.18318 8.47957 1.28579 8.52522 1.40555L10.1135 5.54231L14.3408 5.85516C14.4628 5.86421 14.5794 5.91144 14.6758 5.9908C14.7721 6.07016 14.8437 6.17803 14.8815 6.30055C14.9192 6.42308 14.9213 6.55469 14.8875 6.67848C14.8537 6.80228 14.7856 6.91262 14.6918 6.99535V6.99406Z" fill="#FFA900" stroke="#FFA900"/>
</svg>
